# xmcd CD database file
#
# Track frame offsets:
#	150
#	15580
#	37505
#	56870
#	77287
#	98715
#	114082
#	135005
#	153190
#	171935
#	194832
#	213275
#	234072
#	255230
#	275267
#	297425
#
# Disc length: 4212 seconds
#
# Revision: 3
# Processed by: cddbd v1.5.2PL0 Copyright (c) Steve Scherf et al.
# Submitted via: CDex 1.70beta2
#
DISCID=bb107210
DTITLE=Sheryl Crow - c'mon c'mon
DYEAR=2002
DGENRE=Rock
TTITLE0=Steve McQueen
TTITLE1=Soak Up The Sun
TTITLE2=You're An Original
TTITLE3=Safe And Sound
TTITLE4=C'mon C'mon
TTITLE5=It's So Easy
TTITLE6=Over You
TTITLE7=Lucky Kid
TTITLE8=Diamond Road
TTITLE9=It's Only Love
TTITLE10=Abilene
TTITLE11=Hole In My Pocket
TTITLE12=Weather Channel
TTITLE13=Missing [Bonus Track]
TTITLE14=I Want You [Bonus Track]
TTITLE15=You're Not The One [Bonus Track]
EXTD=YEAR: 2002
EXTT0=
EXTT1=
EXTT2=
EXTT3=
EXTT4=
EXTT5=
EXTT6=
EXTT7=
EXTT8=
EXTT9=
EXTT10=
EXTT11=
EXTT12=
EXTT13=
EXTT14=
EXTT15=
PLAYORDER=
